<?xml version="1.0" encoding="utf-8"?>
<!-- Generator: Adobe Illustrator 23.0.3, SVG Export Plug-In . SVG Version: 6.00 Build 0)  -->
<svg version="1.1" id="Capa_1" xmlns="http://www.w3.org/2000/svg" xmlns:xlink="http://www.w3.org/1999/xlink" x="0px" y="0px"
	 viewBox="0 0 512 512" style="enable-background:new 0 0 512 512;" xml:space="preserve">
<style type="text/css">
	.st0{fill:#5586C5;}
	.st1{fill:none;stroke:#5F88C6;stroke-width:20;stroke-miterlimit:10;}
</style>
<g>
	<g>
		<path class="st0" d="M150.4,312c7.5-3.8,16.4-1,20.4,6.4l28.2,52.3c2.2,4,6.8,6.1,11.2,4.9c4.4-1.1,7.5-5.1,7.5-9.7v-76.4
			c0-5.5-4.5-10-10-10s-10,4.5-10,10v36.8l-9.4-17.5c-9.2-17-29.8-23.5-47-14.8c-14.7,7.4-22.3,23.8-18.4,39.9l18.3,75.9
			c4.3,17.7,11.9,34.2,22.7,48.9l35.9,49.1c2,2.7,5,4.1,8.1,4.1c2,0,4.1-0.6,5.9-1.9c4.5-3.3,5.4-9.5,2.2-14L180.1,447
			c-9.2-12.6-15.7-26.7-19.4-41.8l-18.3-75.9C140.8,322.3,144.1,315.2,150.4,312z"/>
	</g>
</g>
<g>
	<path class="st0" d="M376.2,269.4c-5.9,0-11.5,1.5-16.3,4.2c-4.9-12.8-17.3-21.9-31.8-21.9c-6.2,0-12.1,1.7-17.1,4.7
		c-5.4-11.7-17.2-19.9-30.9-19.9c-5,0-9.8,1.1-14,3v-47.8c0-18.8-15.3-34-34-34s-34,15.3-34,34V209c0,19.3,4.5,24.9,10,24.9
		s10-10,10-24.9v-17.3c0-7.7,6.3-14,14-14s14,6.3,14,14v141.1c0,5.5,4.5,10,10,10c5.5,0,10-4.5,10-10v-62.3c0-7.7,6.3-14,14-14
		c7.7,0,14,6.3,14,14v62.3c0,5.5,4.5,10,10,10s10-4.5,10-10v-47.1c0-7.7,6.3-14,14-14c7.7,0,14,6.3,14,14v47.1c0,5.5,4.5,10,10,10
		s10-4.5,10-10v-29.3c0-7.7,6.3-14,14-14s14,6.3,14,14v84.4c0,22.5-3.4,44.8-10.1,66.2L366,499c-1.7,5.3,1.3,10.9,6.5,12.5
		c1,0.3,2,0.5,3,0.5c4.3,0,8.2-2.7,9.5-7l14.1-45c7.3-23.4,11.1-47.7,11.1-72.2v-84.4C410.3,284.7,395,269.4,376.2,269.4z"/>
	<line class="st1" x1="207.9" y1="214.2" x2="207.9" y2="296.1"/>
</g>
<g>
	<g>
		<path id="st3" d="M511.2,53c-2-6.1-7.2-10.5-13.6-11.5l-30.6-4.4L453.2,9.4c-2.9-5.8-8.6-9.4-15.1-9.4c0,0,0,0,0,0
			c-6.5,0-12.2,3.6-15.1,9.4l-13.7,27.8l-30.6,4.5c-6.4,0.9-11.6,5.3-13.6,11.5c-2,6.1-0.4,12.8,4.3,17.3l22.2,21.6l-5.2,30.5
			c-1.1,6.4,1.5,12.7,6.7,16.5c3,2.1,6.4,3.2,9.9,3.2c2.7,0,5.4-0.6,7.9-2l27.4-14.4l27.4,14.4c5.7,3,12.5,2.5,17.7-1.3
			c5.2-3.8,7.8-10.1,6.7-16.5l-5.2-30.5l22.2-21.6C511.5,65.8,513.2,59.2,511.2,53z M469.6,78.7c-4,3.9-5.8,9.4-4.8,14.9l4.4,25.8
			L446,107.3c-4.9-2.6-10.8-2.6-15.7,0l-23.2,12.2l4.4-25.8c0.9-5.5-0.9-11-4.8-14.9l-18.8-18.3l25.9-3.8c5.5-0.8,10.2-4.2,12.7-9.2
			L438.1,24l11.6,23.5c2.5,5,7.2,8.4,12.7,9.2l25.9,3.8L469.6,78.7z"/>
        <animate
                attributeName="fill"
                begin="2s"
                dur="1s"
                values="#000000;#FCB316"
                fill="freeze"
                repeatCount="1"
        />
	</g>
</g>
<g>
	<g>
		<path id="st2" d="M329,53c-2-6.1-7.2-10.5-13.6-11.5l-30.6-4.4L271.1,9.4C268.2,3.6,262.4,0,256,0c0,0,0,0,0,0
			c-6.5,0-12.2,3.6-15.1,9.4l-13.7,27.8l-30.6,4.5c-6.4,0.9-11.6,5.3-13.6,11.5c-2,6.1-0.4,12.8,4.3,17.3l22.2,21.6l-5.2,30.5
			c-1.1,6.4,1.5,12.7,6.7,16.5c2.9,2.1,6.4,3.2,9.9,3.2c2.7,0,5.4-0.6,7.9-2l27.4-14.4l27.4,14.4c5.7,3,12.5,2.5,17.7-1.3
			c5.2-3.8,7.8-10.1,6.7-16.5l-5.2-30.5l22.2-21.6C329.4,65.8,331,59.2,329,53z M287.4,78.7c-4,3.9-5.8,9.4-4.8,14.9l4.4,25.8
			l-23.2-12.2c-4.9-2.6-10.8-2.6-15.7,0L225,119.5l4.4-25.8c0.9-5.5-0.9-11-4.8-14.9l-18.8-18.3l25.9-3.8c5.5-0.8,10.2-4.2,12.7-9.2
			L256,24l11.6,23.5c2.5,5,7.2,8.4,12.7,9.2l25.9,3.8L287.4,78.7z"/>
        <animate
                attributeName="fill"
                begin="1s"
                dur="1s"
                values="#000000;#FCB316"
                fill="freeze"
                repeatCount="1"
        />
	</g>
</g>
<g>
	<g>
		<path id="st1" d="M146.9,53c-2-6.1-7.2-10.5-13.6-11.5l-30.6-4.4L88.9,9.4C86.1,3.6,80.3,0,73.8,0c0,0,0,0,0,0
			c-6.5,0-12.2,3.6-15.1,9.4L45,37.1l-30.6,4.5C8,42.5,2.8,46.9,0.8,53.1S0.5,65.8,5.1,70.3l22.2,21.6L22,122.4
			c-1.1,6.4,1.5,12.7,6.7,16.5c3,2.1,6.4,3.2,9.9,3.2c2.7,0,5.4-0.6,7.9-2l27.4-14.4l27.4,14.4c5.7,3,12.5,2.5,17.7-1.3
			c5.2-3.8,7.8-10.1,6.7-16.5l-5.2-30.5l22.2-21.6C147.2,65.8,148.9,59.2,146.9,53z M105.3,78.7c-4,3.9-5.8,9.4-4.8,14.9l4.4,25.8
			l-23.2-12.2c-4.9-2.6-10.8-2.6-15.7,0l-23.2,12.2l4.4-25.8c0.9-5.5-0.9-11-4.8-14.9L23.6,60.5l25.9-3.8c5.5-0.8,10.2-4.2,12.7-9.2
			L73.8,24l11.6,23.5c2.5,5,7.2,8.4,12.7,9.2l25.9,3.8L105.3,78.7z"/>
        <animate
                attributeName="fill"
                begin="0s"
                dur="1s"
                values="#000000;#FCB316"
                fill="freeze"
                repeatCount="1"
        />
	</g>
</g>
</svg>
